<svg width="15" height="14" viewBox="0 0 15 14" fill="none" xmlns="http://www.w3.org/2000/svg">
<g id="safearea">
<g id="Vector">
<path d="M12.9 1H9.3C8.96863 1 8.7 1.26863 8.7 1.6V5.2C8.7 5.53137 8.96863 5.8 9.3 5.8H12.9C13.2314 5.8 13.5 5.53137 13.5 5.2V1.6C13.5 1.26863 13.2314 1 12.9 1Z" stroke="#406AFF" stroke-width="1.5" stroke-linecap="round"/>
<path d="M12.9 8.2H9.3C8.96863 8.2 8.7 8.46863 8.7 8.8V12.4C8.7 12.7314 8.96863 13 9.3 13H12.9C13.2314 13 13.5 12.7314 13.5 12.4V8.8C13.5 8.46863 13.2314 8.2 12.9 8.2Z" stroke="#406AFF" stroke-width="1.5" stroke-linecap="round"/>
<path d="M5.7 8.2H2.1C1.76863 8.2 1.5 8.46863 1.5 8.8V12.4C1.5 12.7314 1.76863 13 2.1 13H5.7C6.03137 13 6.3 12.7314 6.3 12.4V8.8C6.3 8.46863 6.03137 8.2 5.7 8.2Z" stroke="#406AFF" stroke-width="1.5" stroke-linecap="round"/>
</g>
</g>
</svg>
