<svg xmlns="http://www.w3.org/2000/svg" viewBox="0 0 40 50" x="0px" y="0px"><path d="M21.41,20l6.29-6.29c.39-.39,.39-1.02,0-1.41s-1.02-.39-1.41,0l-6.29,6.29-6.29-6.29c-.39-.39-1.02-.39-1.41,0s-.39,1.02,0,1.41l6.29,6.29-6.29,6.29c-.39,.39-.39,1.02,0,1.41,.2,.2,.45,.29,.71,.29s.51-.1,.71-.29l6.29-6.29,6.29,6.29c.2,.2,.45,.29,.71,.29s.51-.1,.71-.29c.39-.39,.39-1.02,0-1.41l-6.29-6.29Z"/><text x="0" y="55" fill="#000000" font-size="5px" font-weight="bold" font-family="'Helvetica Neue', Helvetica, Arial-Unicode, Arial, Sans-serif">Created by Jaro Sigrist</text><text x="0" y="60" fill="#000000" font-size="5px" font-weight="bold" font-family="'Helvetica Neue', Helvetica, Arial-Unicode, Arial, Sans-serif">from the Noun Project</text></svg>