<svg width="28" height="28" viewBox="0 0 28 28" fill="none" xmlns="http://www.w3.org/2000/svg">
<path d="M10 8.08341C10.3222 8.08341 10.5834 8.34458 10.5834 8.66675C10.5834 8.98891 10.3222 9.25008 10 9.25008C9.67786 9.25008 9.41669 8.98891 9.41669 8.66675C9.41669 8.34458 9.67786 8.08341 10 8.08341ZM18 18.7501C18.3222 18.7501 18.5834 19.0112 18.5834 19.3334C18.5834 19.6556 18.3222 19.9167 18 19.9167C17.6779 19.9167 17.4167 19.6556 17.4167 19.3334C17.4167 19.0112 17.6779 18.7501 18 18.7501ZM10 18.7501C10.3222 18.7501 10.5834 19.0112 10.5834 19.3334C10.5834 19.6556 10.3222 19.9167 10 19.9167C9.67786 19.9167 9.41669 19.6556 9.41669 19.3334C9.41669 19.0112 9.67786 18.7501 10 18.7501ZM18 13.4167C18.3222 13.4167 18.5834 13.6779 18.5834 14.0001C18.5834 14.3222 18.3222 14.5834 18 14.5834C17.6779 14.5834 17.4167 14.3222 17.4167 14.0001C17.4167 13.6779 17.6779 13.4167 18 13.4167ZM10 13.4167C10.3222 13.4167 10.5834 13.6779 10.5834 14.0001C10.5834 14.3222 10.3222 14.5834 10 14.5834C9.67786 14.5834 9.41669 14.3222 9.41669 14.0001C9.41669 13.6779 9.67786 13.4167 10 13.4167ZM18 8.08341C18.3222 8.08341 18.5834 8.34458 18.5834 8.66675C18.5834 8.98891 18.3222 9.25008 18 9.25008C17.6779 9.25008 17.4167 8.98891 17.4167 8.66675C17.4167 8.34458 17.6779 8.08341 18 8.08341Z" fill="#363C45" stroke="#737982" stroke-width="1.5" stroke-linecap="round"/>
</svg>
