<?xml version="1.0" encoding="utf-8"?>
<!-- Generator: Adobe Illustrator 16.0.0, SVG Export Plug-In . SVG Version: 6.00 Build 0)  -->
<!DOCTYPE svg PUBLIC "-//W3C//DTD SVG 1.1//EN" "http://www.w3.org/Graphics/SVG/1.1/DTD/svg11.dtd">
<svg version="1.1" id="Layer_1" xmlns="http://www.w3.org/2000/svg" xmlns:xlink="http://www.w3.org/1999/xlink" x="0px" y="0px"
	 width="128px" height="128px" viewBox="0 0 128 128" enable-background="new 0 0 128 128" xml:space="preserve">
<g>
	<g>
		<g>
			<path fill="#282D33" d="M82.141,18.8L67.334,6.194c-1.804-1.532-4.854-1.532-6.658,0.001L46.732,18.068l-2.603-3.058
				L58.075,3.138c3.267-2.778,8.587-2.779,11.859-0.002l14.808,12.606L82.141,18.8z"/>
		</g>
		<g>
			<path fill="#282D33" d="M125.981,126.947H2.016c-1.109,0-2.007-0.899-2.007-2.008V53.688c-0.038-0.419,0.057-0.839,0.269-1.198
				c0.162-0.284,0.389-0.526,0.66-0.705l12.566-10.699l2.602,3.058L4.023,54.43v68.503h119.952V54.419l-12.267-10.445l2.603-3.057
				l12.826,10.923c0.362,0.257,0.638,0.628,0.768,1.059c0.085,0.266,0.114,0.547,0.085,0.826v71.215
				C127.989,126.048,127.09,126.947,125.981,126.947z"/>
		</g>
		<g>
			<polygon fill="#282D33" points="114.607,56.248 110.593,56.248 110.593,19.272 16.8,19.272 16.8,56.248 12.786,56.248 
				12.786,15.258 114.607,15.258 			"/>
		</g>
		<g>
			<g>
				<path fill="#282D33" d="M83.827,92.721H44.179c-0.464,0-0.913-0.161-1.272-0.455L0.585,57.603l2.543-3.105l41.767,34.209h38.218
					l41.93-34.212l2.538,3.111L85.097,92.269C84.738,92.561,84.29,92.721,83.827,92.721z"/>
			</g>
			<g>
				<g>
					<path fill="#282D33" d="M6.993,125.504l-2.602-3.058l13.793-11.73l10.4-8.929c1.223-1.048,2.825-2.425,4.429-3.804l10.31-8.846
						l2.614,3.047l-10.309,8.845c-1.604,1.38-3.208,2.758-4.432,3.805l-10.405,8.934L6.993,125.504z"/>
				</g>
				<g>
					<path fill="#282D33" d="M122.06,126.503l-25.25-21.67c-1.221-1.044-2.826-2.423-4.432-3.804l-10.306-8.844l2.614-3.047
						l10.308,8.845c1.604,1.38,3.208,2.758,4.428,3.802l25.253,21.672L122.06,126.503z"/>
				</g>
			</g>
		</g>
	</g>
	<g>
		<g>
			<path fill="#282D33" d="M64.778,77.373c-13.085,0-23.73-10.628-23.73-23.69s10.646-23.689,23.73-23.689
				c7.136,0,13.826,3.164,18.357,8.68l-3.104,2.548c-3.765-4.584-9.325-7.213-15.254-7.213c-10.872,0-19.716,8.826-19.716,19.675
				c0,10.85,8.844,19.676,19.716,19.676c4.326,0,8.436-1.375,11.884-3.976l2.417,3.205C74.929,75.719,69.983,77.373,64.778,77.373z"
				/>
		</g>
		<g>
			<path fill="#282D33" d="M60.857,65.311C60.856,65.311,60.856,65.311,60.857,65.311c-0.934,0-1.921-0.148-2.936-0.439
				c-3.035-0.871-5.333-3.403-6.147-6.773c-1.102-4.561,0.581-9.612,4.389-13.185c3.331-3.123,7.874-3.778,11.099-3.778
				c2.703,0,4.727,0.453,4.811,0.472l2.105,0.479l-0.63,2.064c-0.161,0.524-3.934,12.875-4.604,14.801
				C67.533,62.992,64.586,65.311,60.857,65.311z M67.262,45.149c-2.5,0-5.979,0.467-8.352,2.692
				c-3.296,3.091-3.832,6.837-3.233,9.313c0.477,1.978,1.699,3.383,3.353,3.857c0.655,0.188,1.269,0.283,1.827,0.283c0,0,0,0,0,0
				c2.493,0,3.711-1.993,4.294-3.666c0.478-1.369,2.717-8.649,3.869-12.405C68.497,45.18,67.902,45.149,67.262,45.149z"/>
		</g>
		<g>
			<path fill="#282D33" d="M73.932,65.097c-2.05,0-3.946-0.705-5.454-2.074c-3.106-2.818-0.963-12.375,0.593-17.82l3.859,1.102
				c-1.728,6.061-2.545,12.632-1.716,13.787c1.484,1.341,3.371,1.091,4.686,0.637c3.038-1.046,6.531-4.536,7.329-9.182
				c0.579-3.372-0.066-8.454-6.433-13.521l2.499-3.141c8.32,6.621,8.515,13.707,7.891,17.342
				c-0.953,5.544-5.056,10.602-9.979,12.299C76.096,64.907,74.992,65.096,73.932,65.097z"/>
		</g>
	</g>
</g>
</svg>
