<svg width="33" height="32" viewBox="0 0 33 32" fill="none" xmlns="http://www.w3.org/2000/svg">
<rect width="33" height="32" fill="#BCBCBC"/>
<g id="MyWall - Home" clip-path="url(#clip0_167_1074)">
<rect width="375" height="3827" transform="translate(-71 -894)" fill="white"/>
<g id="Frame 32">
<g id="Frame 58">
<g id="Frame 24">
<g id="Frame 8">
<g id="Frame 36">
<rect x="-50.5" y="-15.5" width="334" height="161" rx="11.5" fill="white"/>
<g id="Frame 27050">
<g id="Frame 20">
<circle id="Ellipse 1" cx="16.5" cy="16" r="16" fill="#DDF3FF"/>
<path id="Facebook" d="M17.047 16.6301V23.5647H13.744V16.6301H11V13.8182H13.744V12.7952C13.744 8.99708 15.3891 7 18.87 7C19.9371 7 20.2039 7.1654 20.7882 7.30017V10.0814C20.134 9.97111 19.9498 9.90985 19.2701 9.90985C18.4634 9.90985 18.0315 10.1304 17.6377 10.5653C17.2439 11.0003 17.047 11.7538 17.047 12.832V13.8244H20.7882L19.7846 16.6362H17.047V16.6301Z" fill="#0FA1DE"/>
</g>
</g>
<rect x="-50.5" y="-15.5" width="334" height="161" rx="11.5" stroke="#EFF2F5"/>
</g>
</g>
</g>
</g>
</g>
</g>
<defs>
<clipPath id="clip0_167_1074">
<rect width="375" height="3827" fill="white" transform="translate(-71 -894)"/>
</clipPath>
</defs>
</svg>
