<svg width="40" height="40" viewBox="0 0 40 40" fill="none" xmlns="http://www.w3.org/2000/svg">
<g id="Frame" clip-path="url(#clip0_750_4334)">
<g id="&#233;&#161;&#181;&#233;&#157;&#162;-1">
<g id="File">
<g id="photo_album_fill">
<path id="&#229;&#189;&#162;&#231;&#138;&#182;" fill-rule="evenodd" clip-rule="evenodd" d="M8.33337 5C5.57196 5 3.33337 7.23858 3.33337 10V26.6667C3.33337 28.5077 4.82576 30 6.66671 30V10C6.66671 9.07953 7.41291 8.33333 8.33337 8.33333H31.6667C31.6667 6.49238 30.1744 5 28.3334 5H8.33337ZM8.33337 13.3333C8.33337 11.4924 9.82576 10 11.6667 10H33.3334C35.1744 10 36.6667 11.4924 36.6667 13.3333V32.2222C36.6667 34.0632 35.1744 35.5555 33.3334 35.5555H11.6667C9.82576 35.5555 8.33337 34.0632 8.33337 32.2222V13.3333ZM33.3334 13.3333H11.6667V26.4133L18.0805 19.9995C18.894 19.1858 20.2132 19.1858 21.0269 19.9995L26.4284 25.401L27.9015 23.9278C28.715 23.1143 30.0342 23.1143 30.8477 23.9278L33.3334 26.4135V13.3333ZM30 18.3333C30 19.714 28.8807 20.8333 27.5 20.8333C26.1194 20.8333 25 19.714 25 18.3333C25 16.9527 26.1194 15.8333 27.5 15.8333C28.8807 15.8333 30 16.9527 30 18.3333Z" fill="#11CABF"/>
</g>
</g>
</g>
</g>
<defs>
<clipPath id="clip0_750_4334">
<rect width="40" height="40" fill="white"/>
</clipPath>
</defs>
</svg>
