<svg xmlns="http://www.w3.org/2000/svg" width="32" height="32" viewBox="0 0 32 32" fill="none">
  <circle cx="16" cy="16" r="16" fill="#DDF3FF"/>
  <path d="M20.8871 23.5295H11.1129C9.76225 23.5295 8.65881 22.4261 8.65881 21.0754V11.3013C8.65881 9.95061 9.76225 8.84717 11.1129 8.84717H20.8871C22.2377 8.84717 23.3412 9.95061 23.3412 11.3013V21.0754C23.3412 22.4321 22.2438 23.5295 20.8871 23.5295Z" fill="#0FA1DE"/>
  <path d="M16.0028 19.96C14.9959 19.96 14.0492 19.5681 13.3377 18.8566C12.6262 18.145 12.2343 17.1984 12.2343 16.1914C12.2343 15.1845 12.6262 14.2378 13.3377 13.5263C14.0492 12.8148 14.9959 12.4229 16.0028 12.4229C17.0098 12.4229 17.9565 12.8148 18.668 13.5263C19.3795 14.2378 19.7714 15.1845 19.7714 16.1914C19.7714 17.1984 19.3795 18.145 18.668 18.8566C17.9504 19.5681 17.0098 19.96 16.0028 19.96ZM16.0028 13.2248C14.3688 13.2248 13.0362 14.5513 13.0362 16.1914C13.0362 17.8255 14.3627 19.158 16.0028 19.158C17.6369 19.158 18.9694 17.8315 18.9694 16.1914C18.9634 14.5574 17.6369 13.2248 16.0028 13.2248Z" fill="#DDF3FF" stroke="#DDF3FF"/>
  <path d="M20.5001 13C21.0524 13 21.5001 12.5523 21.5001 12C21.5001 11.4477 21.0524 11 20.5001 11C19.9478 11 19.5001 11.4477 19.5001 12C19.5001 12.5523 19.9478 13 20.5001 13Z" fill="#DDF3FF"/>
</svg>