<svg width="32" height="32" viewBox="0 0 32 32" fill="none" xmlns="http://www.w3.org/2000/svg">
<g id="Frame" clip-path="url(#clip0_750_4361)">
<g id="&#233;&#161;&#181;&#233;&#157;&#162;-1">
<g id="File">
<g id="link_2_fill">
<path id="&#229;&#189;&#162;&#231;&#138;&#182;" d="M21.1853 12.7001C21.9176 11.9678 23.0763 11.9221 23.8618 12.5628L24.0137 12.7001L26.8423 15.5285C29.9664 18.6527 29.9664 23.718 26.8423 26.8423C23.7981 29.8863 18.9112 29.9643 15.7726 27.0764L15.5285 26.8423L12.7001 24.0137C11.919 23.2327 11.919 21.9664 12.7001 21.1853C13.4323 20.4531 14.5911 20.4073 15.3766 21.048L15.5285 21.1853L18.3569 24.0137C19.9191 25.5759 22.4517 25.5759 24.0137 24.0137C25.5134 22.5142 25.5734 20.1201 24.1937 18.5489L24.0137 18.3569L21.1853 15.5285C20.4043 14.7475 20.4043 13.4811 21.1853 12.7001ZM11.7571 11.7573C12.4893 11.025 13.648 10.9793 14.4336 11.62L14.5855 11.7573L20.2424 17.4141C21.0235 18.1952 21.0235 19.4615 20.2424 20.2425C19.5102 20.9748 18.3513 21.0206 17.5658 20.3798L17.4139 20.2425L11.7571 14.5857C10.976 13.8047 10.976 12.5383 11.7571 11.7573ZM5.1576 5.1576C8.20168 2.11351 13.0886 2.03546 16.2272 4.92344L16.4713 5.1576L19.2997 7.98603C20.0808 8.76708 20.0808 10.0334 19.2997 10.8145C18.5675 11.5467 17.4088 11.5925 16.6232 10.9517L16.4713 10.8145L13.6429 7.98603C12.0808 6.42394 9.54812 6.42394 7.98603 7.98603C6.48642 9.48564 6.42644 11.8797 7.80608 13.4509L7.98603 13.6429L10.8145 16.4713C11.5955 17.2524 11.5955 18.5187 10.8145 19.2997C10.0822 20.032 8.92348 20.0778 8.13793 19.437L7.98603 19.2997L5.1576 16.4713C2.0334 13.3471 2.0334 8.28179 5.1576 5.1576Z" fill="#7B7B7B"/>
</g>
</g>
</g>
</g>
<defs>
<clipPath id="clip0_750_4361">
<rect width="32" height="32" fill="white"/>
</clipPath>
</defs>
</svg>
