<svg width="33" height="32" viewBox="0 0 33 32" fill="none" xmlns="http://www.w3.org/2000/svg">
<g id="Frame 5">
<circle id="Ellipse 4" cx="16.5" cy="16" r="16" fill="#DDF3FF"/>
<g id="LinkedIn">
<path id="Vector" d="M13.0207 12.7934H9.79541V23.0786H13.0207V12.7934Z" fill="#0FA1DE"/>
<path id="Vector_2" d="M21.7453 12.5705C21.6264 12.5556 21.5001 12.5482 21.3738 12.5407C19.5679 12.4664 18.5498 13.5366 18.1931 13.9973C18.0965 14.1236 18.0519 14.198 18.0519 14.198V12.8231H14.9678V23.1084H18.0519H18.1931C18.1931 22.0605 18.1931 21.0201 18.1931 19.9723C18.1931 19.4075 18.1931 18.8427 18.1931 18.2779C18.1931 17.5793 18.141 16.8362 18.4903 16.197C18.7876 15.662 19.3227 15.3944 19.9246 15.3944C21.7082 15.3944 21.7453 17.0071 21.7453 17.1557C21.7453 17.1631 21.7453 17.1706 21.7453 17.1706V23.153H24.9706V16.4423C24.9706 14.1459 23.8039 12.7934 21.7453 12.5705Z" fill="#0FA1DE"/>
<path id="Vector_3" d="M11.408 11.4631C12.4423 11.4631 13.2808 10.6247 13.2808 9.5904C13.2808 8.55611 12.4423 7.71765 11.408 7.71765C10.3737 7.71765 9.53528 8.55611 9.53528 9.5904C9.53528 10.6247 10.3737 11.4631 11.408 11.4631Z" fill="#0FA1DE"/>
</g>
</g>
</svg>
