<svg width="62" height="62" viewBox="0 0 62 62" fill="none" xmlns="http://www.w3.org/2000/svg">
<path d="M54.4145 7.4335C49.8365 2.8555 42.3855 2.8555 37.8075 7.4335L24.7345 20.5055C20.1565 25.0845 20.1565 32.5345 24.7345 37.1135C25.2225 37.6015 25.8625 37.8455 26.5025 37.8455C27.1425 37.8455 27.7815 37.6015 28.2705 37.1135C29.2475 36.1375 29.2475 34.5545 28.2705 33.5785C25.6415 30.9485 25.6415 26.6705 28.2705 24.0405L41.3425 10.9685C43.9725 8.3395 48.2505 8.3395 50.8795 10.9685C52.1535 12.2425 52.8555 13.9365 52.8555 15.7375C52.8555 17.5395 52.1535 19.2325 50.8795 20.5065L45.4975 25.8895C44.5215 26.8665 44.5215 28.4495 45.4975 29.4245C46.4745 30.4015 48.0565 30.4015 49.0335 29.4245L54.4155 24.0415C56.6335 21.8235 57.8555 18.8745 57.8555 15.7375C57.8555 12.6005 56.6325 9.6515 54.4145 7.4335Z" fill="black"/>
<path d="M33.5775 24.7351C32.6005 25.7111 32.6005 27.2941 33.5775 28.2701C34.8515 29.5441 35.5535 31.2381 35.5535 33.0391C35.5535 34.8411 34.8515 36.5341 33.5775 37.8081L20.5055 50.8801C17.8765 53.5091 13.5985 53.5091 10.9685 50.8801C8.3395 48.2501 8.3395 43.9721 10.9685 41.3421L16.3515 35.9591C17.3285 34.9821 17.3285 33.4001 16.3515 32.4241C15.3755 31.4471 13.7915 31.4471 12.8165 32.4241L7.4335 37.8071C2.8555 42.3861 2.8555 49.8361 7.4335 54.4151C9.7225 56.7041 12.7295 57.8491 15.7375 57.8491C18.7455 57.8491 21.7525 56.7041 24.0415 54.4151L37.1135 41.3421C39.3315 39.1241 40.5535 36.1751 40.5535 33.0381C40.5535 29.9011 39.3315 26.9521 37.1145 24.7341C36.1365 23.7571 34.5535 23.7571 33.5775 24.7351Z" fill="black"/>
</svg>
