 <svg xmlns="http://www.w3.org/2000/svg" width="18" height="20" viewBox="0 0 18 20" fill="none">
<path d="M15.6667 8.48493C15.6667 13.788 9.00004 18.3334 9.00004 18.3334C9.00004 18.3334 2.33337 13.788 2.33337 8.48493C2.33337 6.67663 3.03575 4.9424 4.286 3.66375C5.53624 2.38509 7.23193 1.66675 9.00004 1.66675C10.7681 1.66675 12.4638 2.38509 13.7141 3.66375C14.9643 4.9424 15.6667 6.67663 15.6667 8.48493Z" stroke="white" stroke-width="2" stroke-linecap="round"/>
<path d="M9 10.8335C10.3807 10.8335 11.5 9.71421 11.5 8.3335C11.5 6.95278 10.3807 5.8335 9 5.8335C7.61929 5.8335 6.5 6.95278 6.5 8.3335C6.5 9.71421 7.61929 10.8335 9 10.8335Z" stroke="white" stroke-width="2" stroke-linecap="round"/>
</svg>