<?xml version="1.0" encoding="UTF-8"?>
<svg version="1.1" xmlns="http://www.w3.org/2000/svg" width="200" height="200">
<path d="M0 0 C4.55555556 0.55555556 4.55555556 0.55555556 6 2 C6 7.28 6 12.56 6 18 C36.03 18 66.06 18 97 18 C97 12.72 97 7.44 97 2 C97.66 1.34 98.32 0.68 99 0 C100.65 0.33 102.3 0.66 104 1 C104 6.61 104 12.22 104 18 C105.42054688 17.98839844 106.84109375 17.97679688 108.3046875 17.96484375 C110.16145702 17.95546613 112.01822796 17.9463659 113.875 17.9375 C114.81214844 17.92912109 115.74929687 17.92074219 116.71484375 17.91210938 C118.05869141 17.90727539 118.05869141 17.90727539 119.4296875 17.90234375 C120.67081299 17.89448853 120.67081299 17.89448853 121.93701172 17.88647461 C124 18 124 18 126 19 C126.125 21.375 126.125 21.375 126 24 C125.34 24.66 124.68 25.32 124 26 C117.4 26 110.8 26 104 26 C104.33 40.85 104.66 55.7 105 71 C108.96 67.04 112.92 63.08 117 59 C119.475 56.525 119.475 56.525 122 54 C123.1791874 52.53398323 124.35800933 51.06763776 125.52734375 49.59375 C127.30379031 47.67122958 129.29761743 46.21464927 131.375 44.625 C133.49207801 42.95163808 133.49207801 42.95163808 135 41 C135.16380034 38.78007437 134.78562107 37.0851551 134.265625 34.9296875 C134 33 134 33 135.5 29.5625 C138.67117916 26.31204136 140.52030178 26.07999461 145 26 C145.70125 26.226875 146.4025 26.45375 147.125 26.6875 C147.74375 26.790625 148.3625 26.89375 149 27 C149.7425 26.38125 150.485 25.7625 151.25 25.125 C154.73038157 22.43561424 157.70188061 21.81546536 162 22 C166.90938141 22.85238008 170.72174149 24.20794821 174 28.0625 C177.90110265 33.79224452 177.63670933 39.17811437 177 46 C175.94459868 48.58550279 174.90431283 49.91715784 173 52 C173.33 52.66 173.66 53.32 174 54 C174.39359037 57.54231329 174.17496501 59.61674332 172.6875 62.875 C170 65 170 65 167.75756836 64.81654358 C166.87721924 64.69153976 165.99687012 64.56653595 165.08984375 64.43774414 C159.72619018 64.35574031 156.88704469 66.05606198 153.1171875 69.66577148 C150.98707276 71.772702 148.92984871 73.94107198 146.875 76.12109375 C145.75706219 77.26466477 144.63649029 78.40566612 143.51342773 79.54420471 C140.57678798 82.53393325 137.67386353 85.55430032 134.77789307 88.58337402 C131.2463734 92.26631901 127.67990237 95.91536121 124.11456299 99.56552982 C121.34284082 102.4033549 118.57820678 105.2469649 115.83349609 108.11094666 C115.3283699 108.63435135 114.82324371 109.15775604 114.30281067 109.69702148 C112.93966988 111.10949063 111.58111608 112.52638254 110.22290039 113.94358826 C108 116 108 116 105 117 C104.67 121.95 104.34 126.9 104 132 C105.42054688 131.97679687 106.84109375 131.95359375 108.3046875 131.9296875 C110.16145309 131.91093229 112.01822435 131.89273183 113.875 131.875 C114.81214844 131.85824219 115.74929687 131.84148437 116.71484375 131.82421875 C117.61074219 131.81777344 118.50664062 131.81132812 119.4296875 131.8046875 C120.25710449 131.79421387 121.08452148 131.78374023 121.93701172 131.77294922 C124 132 124 132 126 134 C125.67 135.98 125.34 137.96 125 140 C118.07 140 111.14 140 104 140 C104 145.61 104 151.22 104 157 C102.35 157.33 100.7 157.66 99 158 C98.34 157.34 97.68 156.68 97 156 C97 150.72 97 145.44 97 140 C66.97 140 36.94 140 6 140 C6 145.28 6 150.56 6 156 C5.01 156.99 5.01 156.99 4 158 C-0.55555556 157.44444444 -0.55555556 157.44444444 -2 156 C-2.07319621 153.30345146 -2.09242537 150.63308542 -2.0625 147.9375 C-2.05798828 147.17888672 -2.05347656 146.42027344 -2.04882812 145.63867188 C-2.0370068 143.75908129 -2.01907078 141.87953101 -2 140 C-2.60062256 140.00523682 -3.20124512 140.01047363 -3.82006836 140.01586914 C-6.52586838 140.03658014 -9.23165177 140.04964125 -11.9375 140.0625 C-13.35579102 140.07506836 -13.35579102 140.07506836 -14.80273438 140.08789062 C-15.70185547 140.09111328 -16.60097656 140.09433594 -17.52734375 140.09765625 C-18.35999756 140.10289307 -19.19265137 140.10812988 -20.05053711 140.11352539 C-22 140 -22 140 -23 139 C-23.04080783 137.00041636 -23.04254356 134.99954746 -23 133 C-16.73191505 129.86595753 -9.00793201 132 -2 132 C-2 97.02 -2 62.04 -2 26 C-8.27 26 -14.54 26 -21 26 C-21.66 25.67 -22.32 25.34 -23 25 C-23.04254356 23.00045254 -23.04080783 20.99958364 -23 19 C-22 18 -22 18 -20.05053711 17.88647461 C-19.2178833 17.89171143 -18.38522949 17.89694824 -17.52734375 17.90234375 C-16.62822266 17.90556641 -15.72910156 17.90878906 -14.80273438 17.91210938 C-13.85720703 17.92048828 -12.91167969 17.92886719 -11.9375 17.9375 C-10.98810547 17.94201172 -10.03871094 17.94652344 -9.06054688 17.95117188 C-6.70696935 17.9629989 -4.35351523 17.97947975 -2 18 C-2.02320312 16.86820313 -2.04640625 15.73640625 -2.0703125 14.5703125 C-2.08906901 13.08854825 -2.10726934 11.60677688 -2.125 10.125 C-2.14175781 9.37863281 -2.15851562 8.63226563 -2.17578125 7.86328125 C-2.1933959 5.90805539 -2.10320189 3.95257979 -2 2 C-1.34 1.34 -0.68 0.68 0 0 Z M6 26 C6 31.61 6 37.22 6 43 C11.31981274 41.23968563 11.31981274 41.23968563 16.05859375 38.7578125 C16.77466797 38.33113281 17.49074219 37.90445313 18.22851562 37.46484375 C18.95748047 37.02269531 19.68644531 36.58054687 20.4375 36.125 C21.89429862 35.25221576 23.35132739 34.37981555 24.80859375 33.5078125 C25.50710449 33.08790039 26.20561523 32.66798828 26.92529297 32.23535156 C29.92680813 30.44814672 32.96062466 28.72191225 36 27 C36 26.67 36 26.34 36 26 C26.1 26 16.2 26 6 26 Z M67 26 C71.22122075 29.406243 71.22122075 29.406243 75.671875 32.18359375 C76.6628418 32.73575562 76.6628418 32.73575562 77.67382812 33.29907227 C78.35896484 33.67475342 79.04410156 34.05043457 79.75 34.4375 C80.45576172 34.82929443 81.16152344 35.22108887 81.88867188 35.62475586 C83.92368287 36.75368241 85.96172774 37.8769764 88 39 C89.83365117 40.02026232 91.66706152 41.04095786 93.5 42.0625 C94.655 42.701875 95.81 43.34125 97 44 C97 38.06 97 32.12 97 26 C87.1 26 77.2 26 67 26 Z M40.5625 53.75 C39.45551758 54.41515625 39.45551758 54.41515625 38.32617188 55.09375 C31.28844931 59.05096537 31.28844931 59.05096537 25 64 C24.70975939 68.21951063 24.68599496 72.44489468 24.64990234 76.6730957 C24.63336136 78.09416095 24.60609479 79.51514363 24.56787109 80.93579102 C24.51300989 82.98497641 24.49121697 85.03220974 24.4765625 87.08203125 C24.45674316 88.31155518 24.43692383 89.5410791 24.41650391 90.80786133 C24.71374805 94.16897517 24.71374805 94.16897517 27.38525391 96.33691406 C28.24812012 96.88573242 29.11098633 97.43455078 30 98 C30.77859375 98.50402344 31.5571875 99.00804687 32.359375 99.52734375 C34.90136751 101.02678704 37.44813544 102.51741598 40 104 C40.81597656 104.49371094 41.63195312 104.98742187 42.47265625 105.49609375 C43.24480469 105.95113281 44.01695313 106.40617187 44.8125 106.875 C45.49957031 107.28492188 46.18664062 107.69484375 46.89453125 108.1171875 C49.60032634 109.25171383 51.07487533 109.42817042 54 109 C56.55728642 107.68556051 58.90053587 106.35170996 61.3125 104.8125 C62.30564209 104.19556274 62.30564209 104.19556274 63.31884766 103.56616211 C64.6266889 102.75241206 65.9318001 101.93425479 67.23388672 101.11132812 C69.4287784 99.73019086 71.65383863 98.40084043 73.875 97.0625 C77.03195942 95.35287552 77.03195942 95.35287552 78 93 C78.28009999 88.89635792 78.31353855 84.79111678 78.35009766 80.67871094 C78.3666579 79.3129777 78.39395011 77.94733118 78.43212891 76.58203125 C78.48696324 74.60990239 78.50564662 72.63687332 78.5234375 70.6640625 C78.54325684 69.48279785 78.56307617 68.3015332 78.58349609 67.08447266 C78.27186414 63.81984658 78.27186414 63.81984658 75.61474609 61.67895508 C74.75187988 61.1248999 73.88901367 60.57084473 73 60 C72.22140625 59.49597656 71.4428125 58.99195313 70.640625 58.47265625 C68.09863249 56.97321296 65.55186456 55.48258402 63 54 C62.18402344 53.50628906 61.36804688 53.01257813 60.52734375 52.50390625 C59.75519531 52.04886719 58.98304687 51.59382813 58.1875 51.125 C57.50042969 50.71507812 56.81335938 50.30515625 56.10546875 49.8828125 C49.91204482 47.28594087 45.79596738 50.51261618 40.5625 53.75 Z M6 114 C6 119.94 6 125.88 6 132 C15.9 132 25.8 132 36 132 C32.39331773 129.11465419 29.23077279 126.83372184 25.296875 124.546875 C24.2346875 123.928125 23.1725 123.309375 22.078125 122.671875 C20.97984375 122.03765625 19.8815625 121.4034375 18.75 120.75 C17.63625 120.1003125 16.5225 119.450625 15.375 118.78125 C10.93103068 115.6575661 10.93103068 115.6575661 6 114 Z M88.25 121.875 C85.1255421 123.18983786 82.19507815 124.26167382 78.875 124.9375 C74.37670402 125.94732155 70.64610968 128.21693224 67 131 C67 131.33 67 131.66 67 132 C76.9 132 86.8 132 97 132 C97 128.04 97 124.08 97 120 C93.16614477 120 91.63764095 120.39695283 88.25 121.875 Z " fill="#02C0F9" transform="translate(23,21)"/>
<path d="M0 0 C2.87489593 2.28861494 4.77056635 4.49140576 6.08984375 7.890625 C6.71778893 13.54213166 7.40417411 19.80214712 4.08984375 24.703125 C3.42984375 25.425 2.76984375 26.146875 2.08984375 26.890625 C2.58484375 27.880625 2.58484375 27.880625 3.08984375 28.890625 C3.48343412 32.43293829 3.26480876 34.50736832 1.77734375 37.765625 C-0.91015625 39.890625 -0.91015625 39.890625 -3.16123962 39.7096405 C-4.04380936 39.58527115 -4.92637909 39.46090179 -5.83569336 39.33276367 C-11.33833563 39.24875344 -13.68635213 40.81235234 -17.68188477 44.5246582 C-19.76629303 46.62001113 -21.77794183 48.77599631 -23.7890625 50.94140625 C-24.8898326 52.08054361 -25.99364671 53.21674654 -27.10032654 54.35014343 C-29.99900232 57.33017137 -32.86605639 60.33859088 -35.72424316 63.35742188 C-40.29523277 68.18276314 -44.89550882 72.97881736 -49.52842522 77.74471092 C-51.13028468 79.40636751 -52.70729514 81.08909887 -54.28358459 82.77497864 C-60.04044665 88.80942435 -64.62392137 92.37550826 -72.91015625 93.890625 C-73.85890625 94.303125 -74.80765625 94.715625 -75.78515625 95.140625 C-78.45885023 96.0842817 -79.27303795 95.92764127 -81.91015625 94.890625 C-84.48828125 92.60546875 -84.48828125 92.60546875 -87.16015625 89.828125 C-88.49820313 88.44947266 -88.49820313 88.44947266 -89.86328125 87.04296875 C-90.53875 86.33269531 -91.21421875 85.62242187 -91.91015625 84.890625 C-91.50189111 83.40911742 -91.08292297 81.93055975 -90.66015625 80.453125 C-90.428125 79.62941406 -90.19609375 78.80570312 -89.95703125 77.95703125 C-86.96320406 69.18779861 -83.39614029 63.70354002 -76.59765625 57.328125 C-75.11995635 55.91269867 -73.64467372 54.49474422 -72.171875 53.07421875 C-71.09824707 52.04010864 -71.09824707 52.04010864 -70.00292969 50.98510742 C-67.35826092 48.33827899 -64.91025755 45.55580944 -62.48999023 42.70410156 C-59.79200567 39.60711047 -56.84808184 36.75792738 -53.91015625 33.890625 C-50.83299395 30.88672847 -48.05506327 27.85261391 -45.3828125 24.484375 C-43.60636594 22.56185458 -41.61253882 21.10527427 -39.53515625 19.515625 C-37.41807824 17.84226308 -37.41807824 17.84226308 -35.91015625 15.890625 C-35.74635591 13.67069937 -36.12453518 11.9757801 -36.64453125 9.8203125 C-36.91015625 7.890625 -36.91015625 7.890625 -35.41015625 4.453125 C-32.23897709 1.20266636 -30.38985447 0.97061961 -25.91015625 0.890625 C-25.20890625 1.1175 -24.50765625 1.344375 -23.78515625 1.578125 C-23.16640625 1.68125 -22.54765625 1.784375 -21.91015625 1.890625 C-20.21839962 0.58927375 -18.5531082 -0.74692704 -16.91015625 -2.109375 C-11.22698012 -3.73313961 -5.14180944 -2.98624515 0 0 Z " fill="#FCB87D" transform="translate(193.91015625,46.109375)"/>
<path d="M0 0 C4.55555556 0.55555556 4.55555556 0.55555556 6 2 C6 7.28 6 12.56 6 18 C36.03 18 66.06 18 97 18 C97 12.72 97 7.44 97 2 C97.66 1.34 98.32 0.68 99 0 C100.65 0.33 102.3 0.66 104 1 C104 6.61 104 12.22 104 18 C105.42054688 17.98839844 106.84109375 17.97679688 108.3046875 17.96484375 C110.16145702 17.95546613 112.01822796 17.9463659 113.875 17.9375 C114.81214844 17.92912109 115.74929687 17.92074219 116.71484375 17.91210938 C118.05869141 17.90727539 118.05869141 17.90727539 119.4296875 17.90234375 C120.67081299 17.89448853 120.67081299 17.89448853 121.93701172 17.88647461 C124 18 124 18 126 19 C126.125 21.375 126.125 21.375 126 24 C124 26 124 26 121.93701172 26.22705078 C120.69588623 26.21134033 120.69588623 26.21134033 119.4296875 26.1953125 C118.21901611 26.18781982 118.21901611 26.18781982 116.98388672 26.18017578 C115.44498779 26.15286377 115.44498779 26.15286377 113.875 26.125 C108.986875 26.063125 108.986875 26.063125 104 26 C104 34.58 104 43.16 104 52 C102.68 50.35 101.36 48.7 100 47 C98.515 46.01 98.515 46.01 97 45 C96.65942383 43.02880859 96.65942383 43.02880859 96.70703125 40.6484375 C96.71669922 39.79765625 96.72636719 38.946875 96.73632812 38.0703125 C96.76146484 37.18085937 96.78660156 36.29140625 96.8125 35.375 C96.82603516 34.4778125 96.83957031 33.580625 96.85351562 32.65625 C96.88893075 30.43690211 96.93831539 28.21874812 97 26 C96.08822998 26.02618408 95.17645996 26.05236816 94.23706055 26.0793457 C90.80199904 26.16538015 87.36810813 26.22763457 83.93237305 26.2746582 C82.45529941 26.29955721 80.97834576 26.33349027 79.50170898 26.37719727 C71.00479693 26.62210657 64.00306884 26.45905716 56.40551758 22.08276367 C53.373256 20.71789205 51.29620949 20.65576959 48 21 C45.76942652 22.05000809 45.76942652 22.05000809 43.6640625 23.48046875 C36.58285633 27.24410195 29.15044684 26.54129118 21.375 26.3125 C19.87894385 26.28736574 18.38284666 26.26456168 16.88671875 26.24414062 C13.2569457 26.18959675 9.62874299 26.10361461 6 26 C6.05800781 27.22976562 6.11601562 28.45953125 6.17578125 29.7265625 C6.22270005 31.35933688 6.26819794 32.99215252 6.3125 34.625 C6.35439453 35.43324219 6.39628906 36.24148437 6.43945312 37.07421875 C6.52474168 41.27041575 6.43036634 44.04426163 3.66796875 47.3359375 C2.78753906 48.21507812 1.90710938 49.09421875 1 50 C0.01 51.32 -0.98 52.64 -2 54 C-2 44.76 -2 35.52 -2 26 C-8.16288593 26.03953271 -8.16288593 26.03953271 -14.32568359 26.09008789 C-15.09219238 26.09258545 -15.85870117 26.09508301 -16.6484375 26.09765625 C-17.82672119 26.10551147 -17.82672119 26.10551147 -19.02880859 26.11352539 C-21 26 -21 26 -23 25 C-23.04254356 23.00045254 -23.04080783 20.99958364 -23 19 C-22 18 -22 18 -20.05053711 17.88647461 C-19.2178833 17.89171143 -18.38522949 17.89694824 -17.52734375 17.90234375 C-16.62822266 17.90556641 -15.72910156 17.90878906 -14.80273438 17.91210938 C-13.85720703 17.92048828 -12.91167969 17.92886719 -11.9375 17.9375 C-10.98810547 17.94201172 -10.03871094 17.94652344 -9.06054688 17.95117188 C-6.70696935 17.9629989 -4.35351523 17.97947975 -2 18 C-2.02320312 16.86820313 -2.04640625 15.73640625 -2.0703125 14.5703125 C-2.08906901 13.08854825 -2.10726934 11.60677688 -2.125 10.125 C-2.14175781 9.37863281 -2.15851562 8.63226563 -2.17578125 7.86328125 C-2.1933959 5.90805539 -2.10320189 3.95257979 -2 2 C-1.34 1.34 -0.68 0.68 0 0 Z " fill="#B2D9FE" transform="translate(23,21)"/>
<path d="M0 0 C2.99168968 1.49584484 3.53039653 4.06079306 5 7 C5.52118408 7.47219971 6.04236816 7.94439941 6.5793457 8.4309082 C8.42073235 10.4646927 8.35057798 11.52283476 8.29296875 14.23046875 C8.28330078 15.03291016 8.27363281 15.83535156 8.26367188 16.66210938 C8.23853516 17.49548828 8.21339844 18.32886719 8.1875 19.1875 C8.16719727 20.4549707 8.16719727 20.4549707 8.14648438 21.74804688 C8.11115799 23.83230384 8.05735139 25.91623277 8 28 C8.91700684 27.97381592 9.83401367 27.94763184 10.77880859 27.9206543 C14.22688934 27.83472421 17.67380995 27.77241469 21.12255859 27.7253418 C22.60646679 27.70041162 24.09025495 27.66645375 25.57373047 27.62280273 C33.76806966 27.38796833 40.67351908 27.27062733 47.81103516 31.91723633 C50.74022029 33.36614733 52.76512146 33.33091387 56 33 C58.45012572 31.94512151 58.45012572 31.94512151 60.83203125 30.51953125 C68.2659069 26.94809633 75.6610987 27.44992641 83.6875 27.6875 C85.17899861 27.71264217 86.67053857 27.7354448 88.16210938 27.75585938 C91.77561505 27.81032249 95.38753329 27.89625769 99 28 C99 23.71 99 19.42 99 15 C103 13 103 13 106 13 C106 17.95 106 22.9 106 28 C107.42054688 27.97679687 108.84109375 27.95359375 110.3046875 27.9296875 C112.16145309 27.91093229 114.01822435 27.89273183 115.875 27.875 C116.81214844 27.85824219 117.74929687 27.84148437 118.71484375 27.82421875 C119.61074219 27.81777344 120.50664062 27.81132812 121.4296875 27.8046875 C122.25710449 27.79421387 123.08452148 27.78374023 123.93701172 27.77294922 C126 28 126 28 128 30 C127.67 31.98 127.34 33.96 127 36 C120.07 36 113.14 36 106 36 C106 41.61 106 47.22 106 53 C104.35 53.33 102.7 53.66 101 54 C100.34 53.34 99.68 52.68 99 52 C99 46.72 99 41.44 99 36 C68.97 36 38.94 36 8 36 C8 41.28 8 46.56 8 52 C7.34 52.66 6.68 53.32 6 54 C1.44444444 53.44444444 1.44444444 53.44444444 0 52 C-0.07319621 49.30345146 -0.09242537 46.63308542 -0.0625 43.9375 C-0.05798828 43.17888672 -0.05347656 42.42027344 -0.04882812 41.63867188 C-0.0370068 39.75908129 -0.01907078 37.87953101 0 36 C-0.60062256 36.00523682 -1.20124512 36.01047363 -1.82006836 36.01586914 C-4.52586838 36.03658014 -7.23165177 36.04964125 -9.9375 36.0625 C-10.88302734 36.07087891 -11.82855469 36.07925781 -12.80273438 36.08789062 C-14.15141602 36.09272461 -14.15141602 36.09272461 -15.52734375 36.09765625 C-16.77632446 36.10551147 -16.77632446 36.10551147 -18.05053711 36.11352539 C-20 36 -20 36 -21 35 C-21.04080783 33.00041636 -21.04254356 30.99954746 -21 29 C-18.65147472 27.82573736 -17.26225935 27.88491827 -14.6484375 27.90234375 C-13.88192871 27.90484131 -13.11541992 27.90733887 -12.32568359 27.90991211 C-11.35195801 27.91901611 -10.37823242 27.92812012 -9.375 27.9375 C-4.734375 27.9684375 -4.734375 27.9684375 0 28 C0 18.76 0 9.52 0 0 Z " fill="#B2D8FD" transform="translate(21,125)"/>
<path d="M0 0 C2.87489593 2.28861494 4.77056635 4.49140576 6.08984375 7.890625 C6.71778893 13.54213166 7.40417411 19.80214712 4.08984375 24.703125 C3.42984375 25.425 2.76984375 26.146875 2.08984375 26.890625 C2.58484375 27.880625 2.58484375 27.880625 3.08984375 28.890625 C3.49176223 32.50789136 3.29093227 34.48844796 1.65234375 37.765625 C-1.5248302 40.40035462 -3.41851866 40.93443404 -7.50390625 40.67578125 C-12.13310671 39.16527915 -14.56203407 35.20141497 -17.52197266 31.52197266 C-20.25004916 28.31602697 -23.2889231 25.40587872 -26.28515625 22.453125 C-26.89254639 21.85032715 -27.49993652 21.2475293 -28.12573242 20.62646484 C-29.22501853 19.53563597 -30.32537336 18.44588202 -31.42724609 17.35766602 C-31.91660645 16.87354248 -32.4059668 16.38941895 -32.91015625 15.890625 C-33.44850098 15.38136475 -33.9868457 14.87210449 -34.54150391 14.34741211 C-36.55093121 12.20858715 -36.84209363 10.81731787 -36.91015625 7.890625 C-35.41015625 4.640625 -35.41015625 4.640625 -32.91015625 1.890625 C-29.52680934 0.98437136 -27.15243503 0.48871128 -23.78515625 1.578125 C-23.16640625 1.68125 -22.54765625 1.784375 -21.91015625 1.890625 C-20.21839962 0.58927375 -18.5531082 -0.74692704 -16.91015625 -2.109375 C-11.22698012 -3.73313961 -5.14180944 -2.98624515 0 0 Z " fill="#D8EAFC" transform="translate(193.91015625,46.109375)"/>
<path d="M0 0 C3.41059403 1.60535287 5.61792484 3.40518901 8.25 6.125 C8.95640625 6.84945312 9.6628125 7.57390625 10.390625 8.3203125 C10.92171875 8.87460938 11.4528125 9.42890625 12 10 C10.45126424 13.68753561 8.20962524 16.04385284 5.3984375 18.86035156 C4.93318665 19.32910706 4.46793579 19.79786255 3.98858643 20.28082275 C2.45570362 21.82247932 0.91565558 23.35673904 -0.625 24.890625 C-1.69381503 25.96078747 -2.76233303 27.03124667 -3.83056641 28.10198975 C-6.06674918 30.34111749 -8.30650093 32.5765963 -10.54882812 34.80957031 C-13.42751696 37.6768374 -16.29709784 40.55302616 -19.16409302 43.43198013 C-21.3668827 45.64198179 -23.57439501 47.84721633 -25.78338623 50.05101776 C-26.84384127 51.1101359 -27.90280509 52.17074926 -28.96026611 53.23285675 C-30.43488252 54.71253049 -31.91571938 56.18567746 -33.3984375 57.65722656 C-34.24067871 58.49787659 -35.08291992 59.33852661 -35.95068359 60.20465088 C-38 62 -38 62 -40 62 C-40.24414062 58.97265625 -40.24414062 58.97265625 -40.48828125 55.9453125 C-40.87393036 53.60480784 -40.87393036 53.60480784 -44 52 C-45.9896995 51.60986284 -47.99019869 51.26797351 -50 51 C-44.93499762 44.8758184 -39.4217079 39.29284139 -33.7890625 33.69140625 C-32.81092733 32.71514014 -31.83301565 31.73865006 -30.85531616 30.76194763 C-28.30285601 28.21327423 -25.74740552 25.66762042 -23.19128418 23.12261963 C-20.57490086 20.51653382 -17.96140697 17.90755379 -15.34765625 15.29882812 C-10.23456754 10.19640882 -5.11831088 5.09718143 0 0 Z " fill="#FD7A06" transform="translate(171,73)"/>
<path d="M0 0 C5.21526975 -0.43193952 8.74564652 0.97290401 13.25 3.375 C13.93457275 3.72933105 14.61914551 4.08366211 15.32446289 4.44873047 C17.55929764 5.61519166 19.78086806 6.8039528 22 8 C22.77649902 8.41701172 23.55299805 8.83402344 24.35302734 9.26367188 C50.11080366 23.16620549 50.11080366 23.16620549 56 32 C57.33599343 40.00890583 58.12067471 50.29510583 54.0234375 57.453125 C48.38709677 63 48.38709677 63 46 63 C45.9906543 62.05680908 45.98130859 61.11361816 45.97167969 60.1418457 C45.9275569 56.62824458 45.86589795 53.11584747 45.79248047 49.6027832 C45.7643283 48.08499315 45.7430851 46.56705807 45.72900391 45.04907227 C45.70749277 42.86138979 45.66080772 40.67544035 45.609375 38.48828125 C45.58842773 37.17384033 45.56748047 35.85939941 45.54589844 34.50512695 C44.90553276 30.39344091 43.96915692 28.87429766 41 26 C38.18319517 24.01978939 38.18319517 24.01978939 34.9765625 22.29296875 C34.39393646 21.96388016 33.81131042 21.63479156 33.21102905 21.29573059 C31.3543319 20.24982882 29.49006228 19.21839634 27.625 18.1875 C26.41221836 17.5081282 25.19997411 16.82779617 23.98828125 16.14648438 C21.56668687 14.78621207 19.14227054 13.43117909 16.71582031 12.07958984 C10.78302998 8.76825123 4.89310733 5.38128183 -1 2 C-0.67 1.34 -0.34 0.68 0 0 Z " fill="#0593D1" transform="translate(71,41)"/>
<path d="M0 0 C1.258125 -0.04125 2.51625 -0.0825 3.8125 -0.125 C4.52019531 -0.14820312 5.22789063 -0.17140625 5.95703125 -0.1953125 C8 0 8 0 11 2 C11.51171875 4.1640625 11.51171875 4.1640625 11.6875 6.625 C11.78611328 7.85089844 11.78611328 7.85089844 11.88671875 9.1015625 C11.92410156 9.72804688 11.96148437 10.35453125 12 11 C13.60875 10.9071875 13.60875 10.9071875 15.25 10.8125 C19 11 19 11 21.375 11.9375 C23.96027033 15.21880464 23.82918456 18.92605169 24 23 C22.1000264 23.7124901 20.19960707 24.42381582 18.296875 25.12890625 C16.79842316 25.69719666 15.30807303 26.28747325 13.828125 26.90234375 C8.60360885 29.03339639 8.60360885 29.03339639 6.09375 28.89453125 C2.96741819 27.55884098 1.09334841 25.37334901 -1.25 22.9375 C-2.14203125 22.01839844 -3.0340625 21.09929687 -3.953125 20.15234375 C-4.62859375 19.44207031 -5.3040625 18.73179687 -6 18 C-4.23536928 11.89262558 -2.30442525 5.92566493 0 0 Z " fill="#FBDDCE" transform="translate(108,113)"/>
<path d="M0 0 C3.98216344 3.15254606 5.85113562 5.91005001 6.46484375 10.91015625 C6.66614191 21.06979262 6.66614191 21.06979262 3.59375 24.69921875 C2.76875 25.42109375 1.94375 26.14296875 1.09375 26.88671875 C-4.52928757 22.21205538 -9.70366554 17.20906208 -14.84375 12.01171875 C-15.62298828 11.22796875 -16.40222656 10.44421875 -17.20507812 9.63671875 C-19.10779085 7.72233294 -21.00811171 5.80563841 -22.90625 3.88671875 C-16.08403197 -3.1640493 -8.92312848 -5.21125331 0 0 Z " fill="#FD79B6" transform="translate(193.90625,46.11328125)"/>
<path d="M0 0 C3.16115776 1.36983503 3.9927092 1.9890638 6 5 C5.29472168 5.59319031 5.29472168 5.59319031 4.57519531 6.19836426 C-1.02697809 10.9947972 -6.14464816 16.15254042 -11.25 21.46875 C-13.0091915 23.2746318 -14.76964567 25.07928429 -16.53125 26.8828125 C-19.28136979 29.7009948 -22.02387556 32.52495386 -24.74609375 35.37011719 C-27.39339584 38.13231295 -30.06839067 40.86490263 -32.75 43.59375 C-33.55856445 44.45190308 -34.36712891 45.31005615 -35.20019531 46.19421387 C-40.83260612 51.85504456 -40.83260612 51.85504456 -44.35351562 52.29223633 C-46.578125 52.02539062 -46.578125 52.02539062 -50 51 C-44.93499762 44.8758184 -39.4217079 39.29284139 -33.7890625 33.69140625 C-32.81092733 32.71514014 -31.83301565 31.73865006 -30.85531616 30.76194763 C-28.30285601 28.21327423 -25.74740552 25.66762042 -23.19128418 23.12261963 C-20.57490086 20.51653382 -17.96140697 17.90755379 -15.34765625 15.29882812 C-10.23456754 10.19640882 -5.11831088 5.09718143 0 0 Z " fill="#FD9637" transform="translate(171,73)"/>
<path d="M0 0 C4.52615993 3.67832017 8.39424999 7.41086363 12 12 C8.00327583 13.57014164 4.33572132 14.92960682 0.125 15.8125 C-4.23536175 16.83246766 -7.5839351 19.04204405 -11.34765625 21.40234375 C-17.72018628 25.24087804 -23.43891937 28.37584319 -31 28 C-31.33 27.34 -31.66 26.68 -32 26 C-28.49641438 24.02116875 -24.99092421 22.04575975 -21.48364258 20.07348633 C-20.29105795 19.40222183 -19.09899561 18.73002852 -17.9074707 18.05688477 C-16.19360118 17.08885925 -14.47768503 16.12446007 -12.76171875 15.16015625 C-11.73006592 14.57886963 -10.69841309 13.99758301 -9.63549805 13.39868164 C-7 12 -7 12 -4 11 C-3.00906983 8.70328908 -3.00906983 8.70328908 -2.375 6 C-1.07335907 1.07335907 -1.07335907 1.07335907 0 0 Z " fill="#0894D1" transform="translate(102,131)"/>
<path d="M0 0 C3 2 3 2 3.51171875 4.1640625 C3.56972656 4.97617188 3.62773437 5.78828125 3.6875 6.625 C3.78611328 7.85089844 3.78611328 7.85089844 3.88671875 9.1015625 C3.92410156 9.72804687 3.96148437 10.35453125 4 11 C2.1000264 11.7124901 0.19960707 12.42381582 -1.703125 13.12890625 C-3.20157684 13.69719666 -4.69192697 14.28747325 -6.171875 14.90234375 C-12.33900719 17.41788451 -12.33900719 17.41788451 -16 16 C-18.25 13.4375 -18.25 13.4375 -20 11 C-19.443125 10.75765625 -18.88625 10.5153125 -18.3125 10.265625 C-14.39131874 8.54348458 -10.48402941 6.79528553 -6.625 4.9375 C-5.99851562 4.63714844 -5.37203125 4.33679688 -4.7265625 4.02734375 C-2.83766367 2.90340621 -1.48644399 1.60955438 0 0 Z " fill="#FDCDBE" transform="translate(128,125)"/>
<path d="M0 0 C1.14949588 0.78633922 2.29448989 1.57926258 3.4375 2.375 C4.07558594 2.81585938 4.71367187 3.25671875 5.37109375 3.7109375 C7 5 7 5 8 7 C8.40191848 10.61726636 8.20108852 12.59782296 6.5625 15.875 C3.35588138 18.53414715 1.36322011 18.89007346 -2.73828125 18.70703125 C-6.98274773 17.38017731 -8.88941527 13.70800769 -11 10 C-10.071875 9.87625 -9.14375 9.7525 -8.1875 9.625 C-4.86074765 9.18466918 -4.86074765 9.18466918 -2 7 C-0.7811879 3.44327821 -0.7811879 3.44327821 0 0 Z " fill="#B5D9FC" transform="translate(189,68)"/>
<path d="M0 0 C4.80456349 4.68136955 6.17604934 6.54689299 6.375 13.25 C6.35902921 20.46081322 6.35902921 20.46081322 3.5 23.8125 C2.675 24.534375 1.85 25.25625 1 26 C-1.31 24.02 -3.62 22.04 -6 20 C-5.566875 19.39414063 -5.13375 18.78828125 -4.6875 18.1640625 C-0.52896979 11.90701472 0.85968708 7.4824616 0 0 Z " fill="#FD3F99" transform="translate(194,47)"/>
<path d="M0 0 C4.52615993 3.67832017 8.39424999 7.41086363 12 12 C3.13141314 15.60756076 3.13141314 15.60756076 -1 15 C-3 13 -3 13 -3.046875 10.9765625 C-2.94890625 10.20054687 -2.8509375 9.42453125 -2.75 8.625 C-2.66234375 7.85414063 -2.5746875 7.08328125 -2.484375 6.2890625 C-1.98335114 3.9213207 -1.17347456 2.10648302 0 0 Z " fill="#4F6067" transform="translate(102,131)"/>
<path d="M0 0 C1.98 1.65 3.96 3.3 6 5 C3.47043472 8.0916909 0.77545388 8.90931332 -3 10 C-2.69201674 8.51988629 -2.378482 7.04092675 -2.0625 5.5625 C-1.88847656 4.73878906 -1.71445313 3.91507813 -1.53515625 3.06640625 C-1 1 -1 1 0 0 Z " fill="#5B717B" transform="translate(102,131)"/>
</svg>
