<?xml version="1.0" encoding="UTF-8"?>
<svg xmlns="http://www.w3.org/2000/svg" xmlns:xlink="http://www.w3.org/1999/xlink" width="18px" height="18px" viewBox="0 0 18 18" version="1.1">
<defs>
<filter id="alpha" filterUnits="objectBoundingBox" x="0%" y="0%" width="100%" height="100%">
  <feColorMatrix type="matrix" in="SourceGraphic" values="0 0 0 0 1 0 0 0 0 1 0 0 0 0 1 0 0 0 1 0"/>
</filter>
<mask id="mask0">
  <g filter="url(#alpha)">
<rect x="0" y="0" width="18" height="18" style="fill:rgb(0%,0%,0%);fill-opacity:0.964706;stroke:none;"/>
  </g>
</mask>
<clipPath id="clip1">
  <rect x="0" y="0" width="18" height="18"/>
</clipPath>
<g id="surface5" clip-path="url(#clip1)">
<path style=" stroke:none;fill-rule:evenodd;fill:rgb(100%,85.882353%,46.666667%);fill-opacity:1;" d="M 14.484375 16.171875 C 10.105469 17.097656 6.589844 15.785156 3.9375 12.234375 C 1.628906 7.625 2.425781 3.6875 6.328125 0.421875 C 6.667969 0.0625 7.042969 0.0625 7.453125 0.421875 C 4.703125 5.878906 6.015625 10.050781 11.390625 12.9375 C 13.335938 13.566406 15.304688 13.800781 17.296875 13.640625 C 16.523438 14.695312 15.585938 15.539062 14.484375 16.171875 Z M 14.484375 16.171875 "/>
</g>
</defs>
<g id="surface1">
<use xlink:href="#surface5" mask="url(#mask0)"/>
<path style=" stroke:none;fill-rule:evenodd;fill:rgb(100%,70.588235%,28.235294%);fill-opacity:1;" d="M 6.328125 0.421875 C 2.425781 3.6875 1.628906 7.625 3.9375 12.234375 C 6.589844 15.785156 10.105469 17.097656 14.484375 16.171875 C 13.792969 16.828125 12.949219 17.25 11.953125 17.4375 C 3.277344 18.046875 -0.425781 14.0625 0.84375 5.484375 C 1.832031 2.855469 3.660156 1.167969 6.328125 0.421875 Z M 6.328125 0.421875 "/>
</g>
</svg>
