<svg width="73" height="20" viewBox="0 0 73 20" fill="none" xmlns="http://www.w3.org/2000/svg">
<g id="Mywall">
<path d="M0.5 0H5.71381L9.30018 8.84146H9.48101L13.0674 0H18.2812V15.6098H14.1825V6.58537H14.0619L10.6262 15.4878H8.15495L4.71926 6.52439H4.59871V15.6098H0.5V0Z" fill="#E2E5E9"/>
<path d="M22.4163 20C21.9391 20 21.4846 19.9619 21.0526 19.8857C20.6206 19.8145 20.2414 19.7154 19.9149 19.5884L20.819 16.6006C21.1606 16.7226 21.472 16.8013 21.7533 16.8369C22.0396 16.8725 22.2832 16.8521 22.4841 16.7759C22.6901 16.6997 22.8382 16.5549 22.9287 16.3415L23.0191 16.128L18.9505 3.90244H23.2903L25.1588 12.0122H25.2794L27.1781 3.90244H31.548L27.3287 16.5854C27.1178 17.2307 26.8114 17.81 26.4096 18.3232C26.0127 18.8415 25.4904 19.2505 24.8424 19.5503C24.1944 19.8501 23.3857 20 22.4163 20Z" fill="#E2E5E9"/>
<path d="M34.3383 15.6098L31.445 3.90244H35.604L36.9301 11.0366H37.0205L38.4972 3.90244H42.5357L44.0727 10.9756H44.1631L45.4289 3.90244H49.5879L46.6947 15.6098H42.2042L40.5767 9.32927H40.4562L38.8288 15.6098H34.3383Z" fill="#E2E5E9"/>
<path d="M53.6364 15.7927C52.898 15.7927 52.245 15.6707 51.6774 15.4268C51.1149 15.1778 50.6728 14.8018 50.3514 14.2988C50.0299 13.7957 49.8692 13.1555 49.8692 12.378C49.8692 11.7378 49.9772 11.1916 50.1931 10.7393C50.4091 10.282 50.7105 9.90854 51.0973 9.6189C51.484 9.32927 51.9336 9.10823 52.4459 8.95579C52.9633 8.80335 53.5208 8.70427 54.1186 8.65854C54.7665 8.60772 55.2864 8.54675 55.6782 8.47561C56.075 8.39939 56.3613 8.29522 56.5371 8.16311C56.7129 8.02591 56.8008 7.84553 56.8008 7.62195V7.59146C56.8008 7.28658 56.6853 7.05285 56.4542 6.89024C56.2232 6.72764 55.9268 6.64634 55.5652 6.64634C55.1684 6.64634 54.8444 6.73526 54.5932 6.91311C54.3471 7.08587 54.1989 7.35264 54.1487 7.71341H50.3212C50.3715 7.00203 50.595 6.34654 50.9918 5.74695C51.3936 5.14228 51.9788 4.65955 52.7473 4.29878C53.5158 3.93293 54.4752 3.75 55.6255 3.75C56.4542 3.75 57.1976 3.84909 57.8556 4.04726C58.5136 4.24035 59.0737 4.5122 59.5358 4.8628C59.9979 5.20833 60.3495 5.61484 60.5906 6.08232C60.8368 6.54471 60.9598 7.04776 60.9598 7.59146V15.6098H57.0721V13.9634H56.9816C56.7506 14.4004 56.4693 14.7536 56.1378 15.0229C55.8113 15.2922 55.4371 15.4878 55.0152 15.6098C54.5983 15.7317 54.1387 15.7927 53.6364 15.7927ZM54.9926 13.1402C55.309 13.1402 55.6054 13.0742 55.8816 12.9421C56.1629 12.81 56.3914 12.6194 56.5673 12.3704C56.7431 12.1214 56.831 11.8191 56.831 11.4634V10.4878C56.7205 10.5335 56.6024 10.5767 56.4768 10.6174C56.3563 10.658 56.2257 10.6961 56.085 10.7317C55.9494 10.7673 55.8038 10.8003 55.6481 10.8308C55.4974 10.8613 55.3391 10.8892 55.1734 10.9146C54.8519 10.9654 54.5882 11.0493 54.3823 11.1662C54.1814 11.2779 54.0307 11.4177 53.9302 11.5854C53.8348 11.748 53.7871 11.9309 53.7871 12.1341C53.7871 12.4593 53.9001 12.7083 54.1261 12.8811C54.3521 13.0539 54.641 13.1402 54.9926 13.1402Z" fill="#E2E5E9"/>
<path d="M66.664 0V15.6098H62.505V0H66.664Z" fill="#E2E5E9"/>
<path d="M72.5 0V15.6098H68.341V0H72.5Z" fill="#E2E5E9"/>
</g>
</svg>
