<?xml version="1.0" encoding="UTF-8"?>
<svg version="1.1" xmlns="http://www.w3.org/2000/svg" width="200" height="200">
<path d="M0 0 C1.10598038 -0.00852997 2.21196075 -0.01705994 3.35145569 -0.02584839 C4.55520844 -0.02494202 5.75896118 -0.02403564 6.99919128 -0.02310181 C8.27454239 -0.02981903 9.54989349 -0.03653625 10.8638916 -0.04345703 C14.35577612 -0.0610942 17.84756256 -0.06581148 21.33948731 -0.0670886 C23.52374615 -0.06851221 25.70798022 -0.07278581 27.89223289 -0.07808304 C35.52002413 -0.09657672 43.14774556 -0.1047546 50.77555847 -0.10317993 C57.87325596 -0.10197914 64.97064906 -0.12307063 72.06826955 -0.15466726 C78.17206871 -0.18086629 84.27576868 -0.19154569 90.37962359 -0.19026911 C94.020676 -0.18976048 97.66145786 -0.19538827 101.30245399 -0.21662521 C105.36694072 -0.2396857 109.43075071 -0.23046466 113.49528503 -0.21841431 C114.69296509 -0.22965332 115.89064514 -0.24089233 117.12461853 -0.25247192 C125.06507888 -0.19269989 130.42581453 0.88444263 136.64836121 6.12680054 C137.17816589 6.75070679 137.70797058 7.37461304 138.25382996 8.01742554 C138.79652527 8.63101929 139.33922058 9.24461304 139.89836121 9.87680054 C144.36555033 16.79811635 144.88490656 23.18755944 144.86125183 31.20639038 C144.86972137 32.274142 144.87819092 33.34189362 144.88691711 34.44200134 C144.91022096 37.95424474 144.9113108 41.46604834 144.91007996 44.97836304 C144.91718549 47.43162204 144.92488507 49.8848794 144.93315125 52.33813477 C144.94658091 57.47411725 144.94817154 62.60994606 144.94230652 67.74594116 C144.93641206 74.31185523 144.96699986 80.87702948 145.0074234 87.44280052 C145.03333314 92.50789327 145.03617478 97.57280865 145.03253174 102.63795853 C145.0342199 105.0579578 145.04383292 107.47796554 145.06167603 109.89789963 C145.08392937 113.28898722 145.07412984 116.67858704 145.05656433 120.06967163 C145.06982758 121.05908249 145.08309082 122.04849335 145.09675598 123.06788635 C145.00046533 131.1100588 142.60102064 137.53324563 137.37882996 143.70492554 C136.41976746 144.47836304 136.41976746 144.47836304 135.44132996 145.26742554 C134.48226746 146.07180054 134.48226746 146.07180054 133.50382996 146.89242554 C129.38927059 149.63546511 125.79644772 150.51766697 120.88265991 150.53485107 C119.22368935 150.54764603 119.22368935 150.54764603 117.53120422 150.56069946 C116.32745148 150.55979309 115.12369873 150.55888672 113.88346863 150.55795288 C112.60811752 150.5646701 111.33276642 150.57138733 110.01876831 150.57830811 C106.52688379 150.59594528 103.03509736 150.60066255 99.5431726 150.60193968 C97.35891376 150.60336329 95.17467969 150.60763688 92.99042702 150.61293411 C85.36263578 150.6314278 77.73491435 150.63960568 70.10710144 150.63803101 C63.00940395 150.63683022 55.91201085 150.6579217 48.81439036 150.68951833 C42.71059121 150.71571736 36.60689124 150.72639677 30.50303632 150.72512019 C26.86198392 150.72461156 23.22120206 150.73023934 19.58020592 150.75147629 C15.51571919 150.77453678 11.4519092 150.76531574 7.38737488 150.75326538 C6.18969482 150.76450439 4.99201477 150.77574341 3.75804138 150.787323 C-4.71918595 150.72351043 -11.12002812 149.23980991 -17.37117004 143.07992554 C-17.91386536 142.57074585 -18.45656067 142.06156616 -19.01570129 141.53695679 C-23.63205472 134.74682681 -24.00218847 127.18509636 -23.97859192 119.2149353 C-23.98706146 118.14703766 -23.99553101 117.07914001 -24.0042572 115.97888184 C-24.02752958 112.47207514 -24.02865173 108.96570965 -24.02742004 105.45883179 C-24.03452685 103.00700202 -24.04222661 100.55517391 -24.05049133 98.10334778 C-24.0639133 92.97334159 -24.06551482 87.84348925 -24.05964661 82.71347046 C-24.05374909 76.1554321 -24.08435623 69.59813366 -24.12476349 63.04023838 C-24.15067121 57.97943681 -24.15351513 52.91881277 -24.14987183 47.85795403 C-24.15155979 45.44074581 -24.16117087 43.02352911 -24.17901611 40.60638618 C-24.20126841 37.22019655 -24.1914709 33.83549691 -24.17390442 30.4493103 C-24.18716766 29.46147049 -24.20043091 28.47363068 -24.21409607 27.45585632 C-24.1177214 19.41909243 -21.7145856 12.99714392 -16.49617004 6.82992554 C-15.53710754 6.05648804 -15.53710754 6.05648804 -14.55867004 5.26742554 C-13.91929504 4.73117554 -13.27992004 4.19492554 -12.62117004 3.64242554 C-8.50661068 0.89938596 -4.91378781 0.01718411 0 0 Z " fill="#C6F8F7" transform="translate(39.55867004394531,24.732574462890625)"/>
<path d="M0 0 C4.64417751 3.09163771 9.13146301 6.37784277 13.58984375 9.73046875 C18.00440598 13.04569731 22.49970897 16.24107354 27.01171875 19.421875 C27.74720947 19.94273682 28.4827002 20.46359863 29.24047852 21.00024414 C29.92424561 21.48227295 30.6080127 21.96430176 31.3125 22.4609375 C31.91876221 22.88842285 32.52502441 23.3159082 33.1496582 23.75634766 C34.730372 24.86551238 34.730372 24.86551238 36.69921875 25.796875 C36.82417735 30.02854984 36.91418352 34.25920673 36.97387695 38.4921875 C36.9987973 39.92759948 37.0327475 41.36288757 37.07641602 42.79785156 C37.38202283 53.10938512 36.55328577 61.06025034 29.63671875 69.234375 C28.67765625 70.0078125 28.67765625 70.0078125 27.69921875 70.796875 C27.05984375 71.333125 26.42046875 71.869375 25.76171875 72.421875 C21.64715938 75.16491458 18.05433652 76.04711643 13.14054871 76.06430054 C12.03456833 76.07283051 10.92858795 76.08136047 9.78909302 76.09014893 C8.58534027 76.08924255 7.38158752 76.08833618 6.14135742 76.08740234 C4.22833076 76.09747818 4.22833076 76.09747818 2.2766571 76.10775757 C-1.21522741 76.12539474 -4.70701385 76.13011201 -8.19893861 76.13138914 C-10.38319745 76.13281275 -12.56743151 76.13708635 -14.75168419 76.14238358 C-22.37947543 76.16087726 -30.00719685 76.16905514 -37.63500977 76.16748047 C-44.73270725 76.16627968 -51.83010035 76.18737117 -58.92772084 76.2189678 C-65.03152 76.24516683 -71.13521997 76.25584623 -77.23907489 76.25456965 C-80.88012729 76.25406102 -84.52090915 76.2596888 -88.16190529 76.28092575 C-92.22639202 76.30398624 -96.290202 76.2947652 -100.35473633 76.28271484 C-101.55241638 76.29395386 -102.75009644 76.30519287 -103.98406982 76.31677246 C-112.46129716 76.2529599 -118.86213933 74.76925937 -125.11328125 68.609375 C-125.65597656 68.10019531 -126.19867188 67.59101563 -126.7578125 67.06640625 C-132.13164834 59.16210593 -131.67239273 50.46355304 -131.48828125 41.234375 C-131.47474609 39.93951172 -131.46121094 38.64464844 -131.44726562 37.31054688 C-131.41215495 34.13888286 -131.36297472 30.9681041 -131.30078125 27.796875 C-129.71716797 26.92289063 -129.71716797 26.92289063 -128.1015625 26.03125 C-118.38895169 20.65829274 -108.72523252 15.20923738 -99.12036133 9.64550781 C-98.27368896 9.15791992 -97.4270166 8.67033203 -96.5546875 8.16796875 C-95.80517822 7.73411865 -95.05566895 7.30026855 -94.28344727 6.85327148 C-88.65045008 3.85191958 -82.05055264 3.88259796 -75.9296875 5.375 C-68.84304045 8.15407727 -63.60783051 13.48982574 -58.30078125 18.796875 C-54.35598091 19.56868376 -52.33027106 19.39000335 -48.8125 17.36328125 C-44.24326227 14.07686858 -39.93701307 10.50713892 -35.65722656 6.85839844 C-24.79225301 -2.3709877 -13.77410186 -7.89626451 0 0 Z " fill="#46CDC9" transform="translate(147.30078125,99.203125)"/>
<path d="M0 0 C4.59747159 2.41194976 7.70472473 5.65554321 10.01171875 10.26953125 C10.53557635 15.5252829 10.67677247 19.9147922 8.32421875 24.70703125 C4.61553465 28.81665417 1.4270467 31.91095121 -4.2578125 32.5078125 C-10.06955861 32.67743335 -13.44808229 32.26923033 -17.98828125 28.26953125 C-22.21605581 23.58469998 -23.4189641 19.88083872 -23.328125 13.68359375 C-22.63805448 8.7817135 -20.08506964 5.11657809 -16.4140625 1.8828125 C-11.4008075 -1.44767159 -5.66448994 -2.08106016 0 0 Z " fill="#2FAEA5" transform="translate(72.98828125,50.73046875)"/>
</svg>
