<svg width="64" height="64" viewBox="0 0 64 64" fill="none" xmlns="http://www.w3.org/2000/svg">
<g id="reels">
<rect width="64" height="64" rx="12" fill="white"/>
<path id="Vector" d="M23.9327 13H40.0673C43.0696 13 45.8012 14.2246 47.783 16.1914C49.768 18.1613 51 20.8796 51 23.8669V40.1362C51 43.1174 49.768 45.8325 47.7893 47.8024L47.783 47.8086C45.7981 49.7785 43.0665 51 40.0704 51H23.9327C20.9273 51 18.1926 49.7754 16.2107 47.8086L16.1361 47.7251C14.2009 45.7645 13 43.0802 13 40.1331V23.8669C13 20.8765 14.2289 18.1613 16.2107 16.1914C18.1926 14.2215 20.9242 13 23.9327 13ZM41.4704 22.5928L41.4922 22.6268H48.2124C47.9417 20.8703 47.0986 19.2931 45.8852 18.084C44.3918 16.5996 42.3322 15.6781 40.0673 15.6781H37.3077L41.4704 22.5928ZM38.3624 22.6268L34.1778 15.6781H24.9998L29.2342 22.6268H38.3624ZM26.1012 22.6268L22.0069 15.9038C20.5104 16.2625 19.1695 17.0326 18.1148 18.084C16.9014 19.29 16.0614 20.8703 15.7876 22.6268H26.1012ZM48.3057 25.3049H15.6943V40.1362C15.6943 42.3535 16.5934 44.3729 18.0463 45.8511L18.1148 45.916C19.6082 47.4004 21.6709 48.325 23.9327 48.325H40.0673C42.3322 48.325 44.3918 47.4035 45.8821 45.9222L45.8883 45.916C47.3786 44.4347 48.3057 42.3875 48.3057 40.1362V25.3049ZM28.8515 29.993L37.1988 35.3893C37.3326 35.4759 37.4539 35.5872 37.5504 35.7233C37.9299 36.2707 37.7899 37.0221 37.2392 37.3994L28.9262 42.2762C28.7177 42.4463 28.4501 42.5483 28.1546 42.5483C27.4826 42.5483 26.9381 42.0072 26.9381 41.3392V30.9826H26.9443C26.9443 30.7445 27.0159 30.5033 27.1621 30.293C27.5479 29.7456 28.3039 29.6126 28.8515 29.993Z" fill="url(#paint0_linear_750_4376)"/>
</g>
<defs>
<linearGradient id="paint0_linear_750_4376" x1="32" y1="13" x2="32" y2="51" gradientUnits="userSpaceOnUse">
<stop stop-color="#F23131"/>
<stop offset="1" stop-color="#F2BC31"/>
</linearGradient>
</defs>
</svg>
