<?xml version="1.0" encoding="UTF-8"?>
<svg xmlns="http://www.w3.org/2000/svg" xmlns:xlink="http://www.w3.org/1999/xlink" width="18px" height="18px" viewBox="0 0 18 18" version="1.1">
<defs>
<filter id="alpha" filterUnits="objectBoundingBox" x="0%" y="0%" width="100%" height="100%">
  <feColorMatrix type="matrix" in="SourceGraphic" values="0 0 0 0 1 0 0 0 0 1 0 0 0 0 1 0 0 0 1 0"/>
</filter>
<mask id="mask0">
  <g filter="url(#alpha)">
<rect x="0" y="0" width="18" height="18" style="fill:rgb(0%,0%,0%);fill-opacity:0.6;stroke:none;"/>
  </g>
</mask>
<clipPath id="clip1">
  <rect x="0" y="0" width="18" height="18"/>
</clipPath>
<g id="surface5" clip-path="url(#clip1)">
<path style=" stroke:none;fill-rule:nonzero;fill:rgb(100%,74.509804%,33.333333%);fill-opacity:1;" d="M 15.617188 9 C 15.617188 8.351562 16.796875 7.554688 16.636719 6.953125 C 16.46875 6.335938 15.046875 6.234375 14.734375 5.691406 C 14.414062 5.140625 15.035156 3.859375 14.589844 3.410156 C 14.140625 2.964844 12.859375 3.585938 12.308594 3.265625 C 11.765625 2.953125 11.664062 1.53125 11.046875 1.363281 C 10.445312 1.203125 9.648438 2.382812 9 2.382812 C 8.351562 2.382812 7.554688 1.203125 6.953125 1.363281 C 6.335938 1.53125 6.234375 2.953125 5.691406 3.265625 C 5.140625 3.585938 3.859375 2.964844 3.410156 3.410156 C 2.964844 3.859375 3.585938 5.140625 3.265625 5.691406 C 2.953125 6.234375 1.53125 6.335938 1.363281 6.953125 C 1.203125 7.554688 2.382812 8.351562 2.382812 9 C 2.382812 9.648438 1.203125 10.445312 1.363281 11.046875 C 1.53125 11.664062 2.953125 11.765625 3.265625 12.308594 C 3.585938 12.859375 2.964844 14.140625 3.410156 14.589844 C 3.859375 15.035156 5.140625 14.414062 5.691406 14.734375 C 6.234375 15.046875 6.335938 16.46875 6.953125 16.636719 C 7.554688 16.796875 8.351562 15.617188 9 15.617188 C 9.648438 15.617188 10.445312 16.796875 11.046875 16.636719 C 11.664062 16.46875 11.765625 15.046875 12.308594 14.734375 C 12.859375 14.414062 14.140625 15.035156 14.589844 14.589844 C 15.035156 14.140625 14.414062 12.859375 14.734375 12.308594 C 15.046875 11.765625 16.46875 11.664062 16.636719 11.046875 C 16.796875 10.445312 15.617188 9.648438 15.617188 9 Z M 15.617188 9 "/>
</g>
</defs>
<g id="surface1">
<use xlink:href="#surface5" mask="url(#mask0)"/>
<path style=" stroke:none;fill-rule:nonzero;fill:rgb(100%,74.509804%,33.333333%);fill-opacity:1;" d="M 14.109375 9 C 14.109375 11.582031 12.195312 13.714844 9.710938 14.058594 C 9.476562 14.09375 9.238281 14.109375 9 14.109375 C 6.179688 14.109375 3.890625 11.820312 3.890625 9 C 3.890625 6.179688 6.179688 3.890625 9 3.890625 C 9.242188 3.890625 9.476562 3.90625 9.710938 3.941406 C 12.195312 4.285156 14.109375 6.417969 14.109375 9 Z M 14.109375 9 "/>
</g>
</svg>
