<svg width="28" height="28" viewBox="0 0 28 28" fill="none" xmlns="http://www.w3.org/2000/svg">
<path d="M8.08366 14C8.08366 13.6778 8.34482 13.4167 8.66699 13.4167C8.98916 13.4167 9.25033 13.6778 9.25033 14C9.25033 14.3222 8.98916 14.5833 8.66699 14.5833C8.34482 14.5833 8.08366 14.3222 8.08366 14ZM18.7503 14C18.7503 13.6778 19.0115 13.4167 19.3337 13.4167C19.6558 13.4167 19.917 13.6778 19.917 14C19.917 14.3222 19.6558 14.5833 19.3337 14.5833C19.0115 14.5833 18.7503 14.3222 18.7503 14ZM13.417 14C13.417 13.6778 13.6782 13.4167 14.0003 13.4167C14.3225 13.4167 14.5837 13.6778 14.5837 14C14.5837 14.3222 14.3225 14.5833 14.0003 14.5833C13.6782 14.5833 13.417 14.3222 13.417 14Z" fill="#363C45" stroke="#737982" stroke-width="1.5" stroke-linecap="round"/>
</svg>
