<svg width="33" height="32" viewBox="0 0 33 32" fill="none" xmlns="http://www.w3.org/2000/svg">
<g id="Frame 4">
<circle id="Ellipse 3" cx="16.5" cy="16" r="16" fill="#DDF3FF"/>
<path id="Twitter" d="M8 21.7067C9.93756 21.8178 11.6319 21.3564 13.2843 20.1347C11.6151 19.8442 10.4576 19.0667 9.82852 17.4605C10.315 17.3922 10.7428 17.5203 11.246 17.3153C9.60206 16.5805 8.53681 15.4784 8.49488 13.5732C9.01491 13.6159 9.40914 13.9662 10.0298 13.9149C8.52004 12.4112 8.05871 10.7709 9.00652 8.7802C10.5834 10.6256 12.4287 11.8815 14.685 12.4711C14.8108 12.5052 14.9282 12.5394 15.0541 12.565C15.6328 12.7017 16.3206 12.9922 16.6729 12.9495C17.2768 12.8726 16.6729 12.1635 16.8239 11.2408C17.302 8.3701 20.4054 7.06293 22.7036 8.74603C23.3747 9.24156 23.9031 9.23301 24.5657 8.93399C24.9096 8.7802 25.2619 8.62641 25.6729 8.447C25.5806 9.26719 24.9599 9.72 24.4651 10.3266C25.027 10.4548 25.48 10.2924 26 10.1216C25.8239 10.7111 25.3877 11.0443 24.9935 11.3689C24.5825 11.7021 24.4231 12.0524 24.4063 12.5992C24.1547 20.878 14.9199 27.2772 8.60392 22.1852C7.99162 21.6896 8.58714 22.1852 8 21.7067Z" fill="#0FA1DE"/>
</g>
</svg>
