<svg width="18" height="18" viewBox="0 0 18 18" fill="none" xmlns="http://www.w3.org/2000/svg">
<path d="M9 0C7.21997 0 5.47991 0.527841 3.99987 1.51677C2.51983 2.50571 1.36628 3.91131 0.685088 5.55585C0.00389957 7.20038 -0.17433 9.00998 0.172937 10.7558C0.520203 12.5016 1.37737 14.1053 2.63604 15.364C3.89472 16.6226 5.49836 17.4798 7.24419 17.8271C8.99002 18.1743 10.7996 17.9961 12.4442 17.3149C14.0887 16.6337 15.4943 15.4802 16.4832 14.0001C17.4722 12.5201 18 10.78 18 9C18 6.61305 17.0518 4.32387 15.364 2.63604C13.6761 0.948212 11.387 0 9 0ZM13.16 6.8L8.36 12.2C8.28964 12.279 8.20338 12.3422 8.10686 12.3855C8.01035 12.4287 7.90578 12.4511 7.8 12.4511C7.69423 12.4511 7.58966 12.4287 7.49314 12.3855C7.39663 12.3422 7.31036 12.279 7.24 12.2L4.84 9.5C4.77425 9.4265 4.72364 9.34076 4.69107 9.24768C4.65849 9.1546 4.64459 9.05601 4.65017 8.95756C4.65574 8.8591 4.68068 8.76271 4.72355 8.6739C4.76642 8.58509 4.82638 8.50561 4.9 8.44C4.97496 8.3693 5.06351 8.31458 5.16027 8.27916C5.25704 8.24375 5.35999 8.22838 5.46288 8.23399C5.56576 8.2396 5.66644 8.26608 5.75877 8.31181C5.85111 8.35754 5.93318 8.42157 6 8.5L7.8 10.57L12 5.8C12.1339 5.65364 12.3197 5.56543 12.5178 5.55422C12.7158 5.54301 12.9104 5.60968 13.06 5.74C13.1365 5.80281 13.1998 5.88014 13.2463 5.96753C13.2927 6.05492 13.3214 6.15064 13.3307 6.24918C13.34 6.34771 13.3297 6.44712 13.3004 6.54165C13.2711 6.63619 13.2234 6.72399 13.16 6.8Z" fill="#5BA70F"/>
</svg>
