<svg width="32" height="32" viewBox="0 0 32 32" fill="none" xmlns="http://www.w3.org/2000/svg">
<g id="Frame 3">
<circle id="Ellipse 6" cx="16" cy="16" r="16" fill="var(--primary-color)"/>
<path id="Vector" d="M4 11.6758L5.08737 12.9666C5.08737 12.9666 7.1336 11.2038 7.61798 12.379C8.10235 13.5542 11.3545 23.5432 11.3545 23.5432C11.3545 23.5432 12.3233 26.25 14.4882 26.25C16.4553 26.25 18.0864 24.468 19.3517 23.2157C22.762 19.8539 26.3009 15.7023 26.9533 10.8474C27.2499 8.64153 26.1329 6.32006 23.6121 6.25264C22.3172 6.21411 20.9827 6.59941 19.925 7.31223C18.462 8.30439 17.6316 9.89377 17.2659 11.5602C17.2659 11.5602 19.1935 10.2694 20.1622 11.7914C20.7455 12.7161 20.3402 13.901 19.8854 14.7968C19.4505 15.6541 18.9562 16.4921 18.4224 17.3013C18.0468 17.8696 17.4636 18.8425 16.6629 18.8425C15.6941 18.8425 15.358 16.5403 15.2197 15.9142C14.7056 13.7083 14.7254 11.4157 14.0433 9.24839C13.638 7.94798 12.7583 5.93476 10.9987 6.37786C7.26211 7.32186 4 11.6758 4 11.6758Z" fill="#0FA1DE"/>
</g>
</svg>
