<svg width="40" height="40" viewBox="0 0 40 40" fill="none" xmlns="http://www.w3.org/2000/svg">
<g id="Frame" clip-path="url(#clip0_750_4348)">
<g id="&#233;&#161;&#181;&#233;&#157;&#162;-1">
<g id="Brand">
<g id="youtube_fill">
<path id="&#229;&#189;&#162;&#231;&#138;&#182;" fill-rule="evenodd" clip-rule="evenodd" d="M20 6.66663C21.4257 6.66663 22.8861 6.70399 24.3028 6.7629L25.9769 6.84293L27.5791 6.93757L29.0794 7.04076L30.4475 7.14641C33.5109 7.39499 35.9727 9.76566 36.2722 12.8518L36.3385 13.5593L36.4635 15.0759C36.5804 16.648 36.6667 18.3622 36.6667 20C36.6667 21.6377 36.5804 23.352 36.4635 24.924L36.3385 26.4406C36.3167 26.6827 36.2945 26.9189 36.2722 27.1481C35.9727 30.2343 33.5109 32.605 30.4475 32.8535L29.0794 32.9591L27.5791 33.0623L25.9769 33.1569L24.3028 33.237C22.8861 33.2959 21.4257 33.3333 20 33.3333C18.5744 33.3333 17.114 33.2959 15.6973 33.237L14.0231 33.1569L12.4209 33.0623L10.9207 32.9591L9.55254 32.8535C6.48922 32.605 4.02737 30.2343 3.72784 27.1481L3.66158 26.4406L3.53658 24.924C3.4197 23.352 3.33337 21.6377 3.33337 20C3.33337 18.3622 3.4197 16.648 3.53658 15.0759L3.66158 13.5593C3.68342 13.3172 3.70559 13.081 3.72784 12.8518C4.02737 9.76566 6.48922 7.39499 9.55254 7.14641L10.9207 7.04076L12.4209 6.93757L14.0231 6.84293L15.6973 6.7629C17.114 6.70399 18.5744 6.66663 20 6.66663ZM16.6667 15.9585V24.0415C16.6667 24.8113 17.5 25.2923 18.1667 24.9075L25.1667 20.866C25.8334 20.4811 25.8334 19.5188 25.1667 19.134L18.1667 15.0925C17.5 14.7076 16.6667 15.1887 16.6667 15.9585Z" fill="#F64D4D"/>
</g>
</g>
</g>
</g>
<defs>
<clipPath id="clip0_750_4348">
<rect width="40" height="40" fill="white"/>
</clipPath>
</defs>
</svg>
