<svg width="25" height="24" viewBox="0 0 25 24" fill="none" xmlns="http://www.w3.org/2000/svg">
<path d="M9.125 12H4.725C4.16495 12 3.88492 12 3.67101 12.109C3.48285 12.2049 3.32987 12.3578 3.23399 12.546C3.125 12.7599 3.125 13.0399 3.125 13.6V19.4C3.125 19.9601 3.125 20.2401 3.23399 20.454C3.32987 20.6422 3.48285 20.7951 3.67101 20.891C3.88492 21 4.16495 21 4.725 21H9.125M9.125 21H15.125M9.125 21L9.125 8.6C9.125 8.03995 9.125 7.75992 9.23399 7.54601C9.32987 7.35785 9.48285 7.20487 9.67101 7.10899C9.88492 7 10.1649 7 10.725 7H13.525C14.0851 7 14.3651 7 14.579 7.10899C14.7672 7.20487 14.9201 7.35785 15.016 7.54601C15.125 7.75992 15.125 8.03995 15.125 8.6V21M15.125 21H19.525C20.0851 21 20.3651 21 20.579 20.891C20.7672 20.7951 20.9201 20.6422 21.016 20.454C21.125 20.2401 21.125 19.9601 21.125 19.4V4.6C21.125 4.03995 21.125 3.75992 21.016 3.54601C20.9201 3.35785 20.7672 3.20487 20.579 3.10899C20.3651 3 20.0851 3 19.525 3H16.725C16.1649 3 15.8849 3 15.671 3.10899C15.4828 3.20487 15.3299 3.35785 15.234 3.54601C15.125 3.75992 15.125 4.03995 15.125 4.6V8" stroke="#A2A2A2" stroke-width="2" stroke-linecap="round" stroke-linejoin="round"/>
</svg>
