<svg width="25" height="24" viewBox="0 0 25 24" fill="none" xmlns="http://www.w3.org/2000/svg">
<path d="M21.875 5C21.875 6.65685 17.8456 8 12.875 8C7.90444 8 3.875 6.65685 3.875 5M21.875 5C21.875 3.34315 17.8456 2 12.875 2C7.90444 2 3.875 3.34315 3.875 5M21.875 5V19C21.875 20.66 17.875 22 12.875 22C7.875 22 3.875 20.66 3.875 19V5M21.875 9.72021C21.875 11.3802 17.875 12.7202 12.875 12.7202C7.875 12.7202 3.875 11.3802 3.875 9.72021M21.875 14.44C21.875 16.1 17.875 17.44 12.875 17.44C7.875 17.44 3.875 16.1 3.875 14.44" stroke="#A2A2A2" stroke-width="2" stroke-linecap="round" stroke-linejoin="round"/>
</svg>
