<svg width="25" height="24" viewBox="0 0 25 24" fill="none" xmlns="http://www.w3.org/2000/svg">
<path d="M3.375 7.8C3.375 6.11984 3.375 5.27976 3.70198 4.63803C3.9896 4.07354 4.44854 3.6146 5.01303 3.32698C5.65476 3 6.49484 3 8.175 3H16.575C18.2552 3 19.0952 3 19.737 3.32698C20.3015 3.6146 20.7604 4.07354 21.048 4.63803C21.375 5.27976 21.375 6.11984 21.375 7.8V16.2C21.375 17.8802 21.375 18.7202 21.048 19.362C20.7604 19.9265 20.3015 20.3854 19.737 20.673C19.0952 21 18.2552 21 16.575 21H8.175C6.49484 21 5.65476 21 5.01303 20.673C4.44854 20.3854 3.9896 19.9265 3.70198 19.362C3.375 18.7202 3.375 17.8802 3.375 16.2V7.8Z" stroke="#406AFF" stroke-width="2" stroke-linecap="round" stroke-linejoin="round"/>
<path fill-rule="evenodd" clip-rule="evenodd" d="M12.3716 9.06791C11.3719 7.8992 9.70487 7.58482 8.45235 8.65501C7.19982 9.72519 7.02348 11.5145 8.0071 12.7802C8.63711 13.5909 10.2506 15.0942 11.3292 16.0704C11.6877 16.3947 11.8669 16.5569 12.0816 16.622C12.2661 16.6779 12.477 16.6779 12.6616 16.622C12.8762 16.5569 13.0555 16.3947 13.4139 16.0704C14.4926 15.0942 16.106 13.5909 16.7361 12.7802C17.7197 11.5145 17.5649 9.71393 16.2908 8.65501C15.0167 7.59608 13.3713 7.8992 12.3716 9.06791Z" stroke="#406AFF" stroke-width="2" stroke-linecap="round" stroke-linejoin="round"/>
</svg>
