<svg width="25" height="24" viewBox="0 0 25 24" fill="none" xmlns="http://www.w3.org/2000/svg">
<path d="M10.02 19.3711L10.6045 20.6856C10.7782 21.0768 11.0618 21.4093 11.4207 21.6426C11.7797 21.8759 12.1986 22.0001 12.6267 22C13.0548 22.0001 13.4738 21.8759 13.8327 21.6426C14.1917 21.4093 14.4752 21.0768 14.6489 20.6856L15.2334 19.3711C15.4414 18.9047 15.7914 18.5159 16.2334 18.26C16.6782 18.0034 17.1927 17.8941 17.7034 17.9478L19.1334 18.1C19.559 18.145 19.9886 18.0656 20.3701 17.8713C20.7515 17.6771 21.0684 17.3763 21.2823 17.0056C21.4964 16.635 21.5985 16.2103 21.576 15.7829C21.5535 15.3555 21.4075 14.9438 21.1556 14.5978L20.3089 13.4344C20.0075 13.0171 19.8464 12.5148 19.8489 12C19.8488 11.4866 20.0114 10.9864 20.3134 10.5711L21.16 9.40778C21.4119 9.06175 21.558 8.65007 21.5804 8.22267C21.6029 7.79528 21.5009 7.37054 21.2867 7C21.0728 6.62923 20.7559 6.32849 20.3745 6.13423C19.9931 5.93997 19.5635 5.86053 19.1378 5.90556L17.7078 6.05778C17.1972 6.11141 16.6826 6.00212 16.2378 5.74556C15.7949 5.48825 15.4449 5.09736 15.2378 4.62889L14.6489 3.31444C14.4752 2.92317 14.1917 2.59072 13.8327 2.3574C13.4738 2.12408 13.0548 1.99993 12.6267 2C12.1986 1.99993 11.7797 2.12408 11.4207 2.3574C11.0618 2.59072 10.7782 2.92317 10.6045 3.31444L10.02 4.62889C9.81297 5.09736 9.46292 5.48825 9.02004 5.74556C8.57526 6.00212 8.06071 6.11141 7.55004 6.05778L6.1156 5.90556C5.68993 5.86053 5.26034 5.93997 4.87891 6.13423C4.49749 6.32849 4.18061 6.62923 3.96671 7C3.75253 7.37054 3.65049 7.79528 3.67298 8.22267C3.69546 8.65007 3.8415 9.06175 4.09338 9.40778L4.94004 10.5711C5.24198 10.9864 5.40458 11.4866 5.40449 12C5.40458 12.5134 5.24198 13.0137 4.94004 13.4289L4.09338 14.5922C3.8415 14.9382 3.69546 15.3499 3.67298 15.7773C3.65049 16.2047 3.75253 16.6295 3.96671 17C4.18082 17.3706 4.49774 17.6712 4.87911 17.8654C5.26048 18.0596 5.68996 18.1392 6.1156 18.0944L7.5456 17.9422C8.05627 17.8886 8.57081 17.9979 9.0156 18.2544C9.46013 18.511 9.81181 18.902 10.02 19.3711Z" stroke="#A2A2A2" stroke-width="2" stroke-linecap="round" stroke-linejoin="round"/>
<path d="M12.6249 15C14.2818 15 15.6249 13.6569 15.6249 12C15.6249 10.3431 14.2818 9 12.6249 9C10.9681 9 9.62492 10.3431 9.62492 12C9.62492 13.6569 10.9681 15 12.6249 15Z" stroke="#A2A2A2" stroke-width="2" stroke-linecap="round" stroke-linejoin="round"/>
</svg>
